/* XPM */
static char *Accounts[] = {
/* columns rows colors chars-per-pixel */
"16 16 74 1",
"  c #444444",
". c #E1F03C",
"X c #E2EF47",
"o c #E3F04C",
"O c #E4F154",
"+ c #E5F25D",
"@ c #E5F163",
"# c #E7F264",
"$ c #E6F266",
"% c #E8F26F",
"& c #E8F46D",
"* c #E9F46E",
"= c #E9F470",
"- c #E9F37A",
"; c #EAF47A",
": c #EAF47D",
"> c #B8B5B2",
", c #EBF583",
"< c #ECF584",
"1 c #ECF486",
"2 c #ECF687",
"3 c #EBF589",
"4 c #EDF58D",
"5 c #EDF68C",
"6 c #EEF68F",
"7 c #EEF790",
"8 c #EEF691",
"9 c #EEF595",
"0 c #EFF794",
"q c #EEF698",
"w c #EFF69E",
"e c #F0F79A",
"r c #F0F79B",
"t c #F0F89B",
"y c #EFF7A2",
"u c #F0F7A5",
"i c #F1F8A3",
"p c #F1F8A5",
"a c #F2F9A6",
"s c #F2F8A7",
"d c #F1F7AA",
"f c #F2F8AD",
"g c #F3F9AE",
"h c #F3F9AF",
"j c #F3F8B1",
"k c #F3F9B6",
"l c #F5F9B7",
"z c #F3F9BA",
"x c #F5FAB8",
"c c #F5F9BC",
"v c #F5FBBC",
"b c #F5FABF",
"n c #F5F9C1",
"m c #F6FBC0",
"M c #F5FAC5",
"N c #F6FAC4",
"B c #F6FAC5",
"V c #F7FBC7",
"C c #F5FBC9",
"Z c #F6FAC8",
"A c #F7FBC8",
"S c #F7FBCB",
"D c #F7FCCD",
"F c #F7FBD0",
"G c #F8FBD3",
"H c #F8FCD0",
"J c #F8FBD7",
"K c #F9FCDB",
"L c #F9FCDD",
"P c #FAFCDF",
"I c #FAFDE1",
"U c #FBFDE7",
"Y c #FFFFFF",
"T c None",
/* pixels */
"TTTTTTTTTTTTTTTT",
"TTTTTTTTTTTTTTTT",
"TTT    TTTTTTTTT",
"TT lVba       TT",
"T xIPJShit05,& T",
"T V>>>>>>>>>>>> ",
"T a>YYYYYYYYYY> ",
"T           YY> ",
" bDSblhur73* Y> ",
" DULGSxjuq5* Y> ",
" nJFVzfy03:@ Y> ",
" aSnkdi71-%@X > ",
"T 7r7<;=@+Oo.  T",
"T             TT",
"TTTTTTTTTTTTTTTT",
"TTTTTTTTTTTTTTTT"
};
