/* XPM */
static char *Contacts[] = {
/* columns rows colors chars-per-pixel */
"16 16 30 1",
"  c #444444",
". c #B8B5B4",
"X c #E1E1E1",
"o c #ECECEC",
"O c #ECECED",
"+ c #ECEDED",
"@ c #F1F2F2",
"# c #F2F2F2",
"$ c #F4F4F4",
"% c #F5F4F4",
"& c #F4F5F4",
"* c #F4F4F5",
"= c #F7F7F6",
"- c #F7F6F7",
"; c #F9F8F8",
": c #F8F9F8",
"> c #F9F8F9",
", c #F8F9F9",
"< c #F9F9F9",
"1 c #FAFAFA",
"2 c #FBFBFA",
"3 c #FAFBFB",
"4 c #FCFCFC",
"5 c #FDFCFC",
"6 c #FCFDFC",
"7 c #FCFCFD",
"8 c #FCFDFD",
"9 c #FDFDFE",
"0 c #FEFEFE",
"q c None",
/* pixels */
"qqqqqqqqqqqqqqqq",
"qqqqqqqqqqqqqqqq",
"qqqqqqqqqqqqqqqq",
"qqqqqqqqqq    qq",
"q         4444 q",
"q 444441444444 q",
"q 11.........6 q",
"q 1:111;13=113 q",
"q :..........* q",
"q $**********$ q",
"q &..........# q",
"q oooooooooooo q",
"q XX XXXXXX XX q",
"q   q      q   q",
"qqqqqqqqqqqqqqqq",
"qqqqqqqqqqqqqqqq"
};
