/* XPM */
static char * Leads[] = {
"16 16 22 1",
" 	c None",
".	c #000000",
"+	c #FFFFFF",
"@	c #2DF306",
"#	c #2DEF07",
"$	c #32CC14",
"%	c #936604",
"&	c #4B380E",
"*	c #4A3A16",
"=	c #FBFBFB",
"-	c #E5E5E5",
";	c #E3E3E3",
">	c #D5D5D5",
",	c #D4D4D4",
"'	c #D2D2D2",
")	c #CFCFCF",
"!	c #888888",
"~	c #868686",
"{	c #7F7F7F",
"]	c #797979",
"^	c #787878",
"/	c #444444",
"                ",
"                ",
"  ++//////+++   ",
"  +//);;)//++   ",
"  //,=++=>//+   ",
"  /)#@++!~^/!!! ",
"  /;@@++!!{/+   ",
"  /;++++++-/+   ",
"  /)#@++!~^/!!! ",
"  //$#++~]//+   ",
"  +//'--'//*/   ",
"  ++//////*%&/  ",
"  ++@+!!!!/&%*/ ",
"  +++++++++/*// ",
"            //  ",
"                "};
