/* XPM */
static char *Opportunities[] = {
/* columns rows colors chars-per-pixel */
"16 16 49 1",
"  c #444444",
". c #6EFF62",
"X c #6FFF64",
"o c #72FF66",
"O c #74FF68",
"+ c #74FF6A",
"@ c #79FF6F",
"# c #7BFF72",
"$ c #7CFF71",
"% c #7FFF75",
"& c #81FF77",
"* c #81FF78",
"= c #83FF79",
"- c #85FF7B",
"; c #86FF7C",
": c #89FF7E",
"> c #89FF80",
", c #8AFF80",
"< c #8BFF83",
"1 c #8CFF83",
"2 c #93FF89",
"3 c #94FF8C",
"4 c #96FF8D",
"5 c #97FF8E",
"6 c #97FF8F",
"7 c #97FF90",
"8 c #9AFF92",
"9 c #9BFF93",
"0 c #A1FF99",
"q c #A3FF9D",
"w c #A7FF9F",
"e c #AAFFA4",
"r c #ACFFA5",
"t c #ADFFA7",
"y c #AEFFA7",
"u c #B1FFAA",
"i c #B5FFAF",
"p c #B6FFB1",
"a c #B7FFB1",
"s c #B9FFB4",
"d c #BCFFB7",
"f c #BEFFB9",
"g c #C2FFBC",
"h c #C2FFBD",
"j c #C4FFC0",
"k c #CEFFCA",
"l c #D5FFD1",
"z c #DBFFD9",
"x c None",
/* pixels */
"xxxxxxxxxxxxxxxx",
"xxxxxx    xxxxxx",
"xxx    yy     xx",
"xx ujfesp086= xx",
"xx hzh        xx",
"xx dlp xxxxxxxxx",
"xx pki        xx",
"xx 8yw2<:<66& xx",
"xx        6q< xx",
"xxxxxxxxx <9; xx",
"xx        :2% xx",
"xx X$@@-=+$$. xx",
"xx     Oo    xxx",
"xxxxxx    xxxxxx",
"xxxxxxxxxxxxxxxx",
"xxxxxxxxxxxxxxxx"
};
