/* XPM */
static char *Project[] = {
/* columns rows colors chars-per-pixel */
"16 16 25 1",
"  c #444444",
". c #005FFD",
"X c #85B2FD",
"o c #A0C3FD",
"O c #DBDCDC",
"+ c #DCDCDC",
"@ c #DEDEDE",
"# c #E0E0E0",
"$ c #E5E4E4",
"% c #E5E4E5",
"& c #E7E6E7",
"* c #E7E7E7",
"= c #E9E9E9",
"- c #ECECEB",
"; c #EDEDED",
": c #F2F2F2",
"> c #F4F4F4",
", c #F6F6F6",
"< c #F8F8F8",
"1 c #F9FAFA",
"2 c #FAFAFA",
"3 c #FCFDFD",
"4 c #FDFDFD",
"5 c #FFFFFF",
"6 c None",
/* pixels */
"66666666666  666",
"666666666  5 666",
"6666666  5o5 666",
"66666  55o.1 666",
"6666 555X.>1 666",
"6666 55o11o: 666",
"6666 11o>o.; 666",
"6666 >>oX.-= 666",
"6666 :oo-=o$ 666",
"6666 o.o&o.# 666",
"6666 .&oo.@@ 666",
"6666 $$o@@  6666",
"6666 @#@  666666",
"6666 @  66666666",
"6666  6666666666",
"6666666666666666"
};
