/* XPM */
static char *ProjectTask[] = {
/* columns rows colors chars-per-pixel */
"16 16 21 1",
"  c #444444",
". c #4EFE00",
"X c #8C8C8C",
"o c #DBDCDC",
"O c #DCDCDC",
"+ c #E0E0E0",
"@ c #E0E0E1",
"# c #E5E4E4",
"$ c #E5E4E5",
"% c #E9E9E9",
"& c #EAEAE9",
"* c #EDEDED",
"= c #EEEEEE",
"- c #F2F2F2",
"; c #F6F6F6",
": c #FAFAF9",
"> c #F9FAFA",
", c #FAFAFA",
"< c #FDFDFD",
"1 c #FFFFFF",
"2 c None",
/* pixels */
"22222222222  222",
"222222222  1 222",
"2222222  111 222",
"22222  11XX> 222",
"2222 11XX>X; 222",
"2222 1X>>XX- 222",
"2222 >.XX-X* 222",
"2222 ;X--XX% 222",
"2222 -.XX%X$ 222",
"2222 *X%%XX+ 222",
"2222 %.XX++O 222",
"2222 $X++O  2222",
"2222 ++O  222222",
"2222 O  22222222",
"2222  2222222222",
"2222222222222222"
};
