/* XPM */
static char *Users[] = {
/* columns rows colors chars-per-pixel */
"16 16 33 1",
"  c #444444",
". c #DC0000",
"X c #CAD8FF",
"o c #CBD9FF",
"O c #CBDAFF",
"+ c #CDDAFF",
"@ c #CEDCFF",
"# c #D0DDFF",
"$ c #D3DFFF",
"% c #D4DFFF",
"& c #D6E0FF",
"* c #D6E1FF",
"= c #D7E2FF",
"- c #D8E2FF",
"; c #D9E3FF",
": c #DAE4FF",
"> c #DBE5FF",
", c #DDE5FF",
"< c #DDE6FF",
"1 c #DFE8FF",
"2 c #E0E8FF",
"3 c #E2E9FF",
"4 c #E4EBFF",
"5 c #E5EBFF",
"6 c #E8EDFF",
"7 c #E8EEFF",
"8 c #EAF0FF",
"9 c #EBF0FF",
"0 c #EDF2FF",
"q c #F0F3FF",
"w c #F0F4FF",
"e c #FFFFFF",
"r c None",
/* pixels */
"rrrrrrrrrrrrrrrr",
"rr             r",
"r ww09 ..e 33<> ",
"rqqq999   111>;>",
"r000777 e ,,<;=;",
"r99944 .ee ;;;%$",
"r7 444 ..e ==% #",
"r  333 e.. %%%  ",
"rr 11 .ee.. $@ r",
"rr << ..ee. +@ r",
"rr ;> e..ee ++ r",
"rr == ee..e OO r",
"rr ==% ee. OOO r",
"rr $$$% e XOOX r",
"rrrrrrrr rrrrrrr",
"rrrrrrrrrrrrrrrr"
};
